<?xml version="1.0" encoding="UTF-8"?>
<svg id="Capa_2" xmlns="http://www.w3.org/2000/svg" viewBox="0 0 751.24 324.06">
  <defs>
    <style>
      .cls-1 {
        fill: #e9d942;
      }

      .cls-2 {
        fill: #3d745e;
      }

      .cls-3 {
        fill: #8aba4b;
      }

      .cls-4 {
        fill: #a5b1b2;
      }

      .cls-5 {
        fill: #f3f4f1;
      }

      .cls-6 {
        fill: #284a65;
      }
    </style>
  </defs>
  <path class="cls-5" d="M285.75,205.23c-.03-4.65-2.71-7.03-7.36-7.04-7.83-.01-15.65-.03-23.48.02-1.28,0-2.04-.27-2.63-1.53-10.72-22.61-26.03-41.97-42.89-60.22-4.93-5.34-10.12-10.43-15.73-15.7,5.12-.96,9.82-1.85,14.52-2.74,1.12-.21,1.24.39,1.33,1.33.47,4.54,2.7,6.54,7.2,6.54,15.91,0,31.83,0,47.74,0,4.82,0,7.36-2.5,7.36-7.24,0-15.9,0-31.8,0-47.69,0-4.84-2.37-7.45-7.17-7.47-16-.07-32-.07-48.01,0-4.85.02-7.16,2.56-7.16,7.45,0,12.3-.04,24.59.04,36.89.01,1.7-.43,2.43-2.18,2.79-6.02,1.23-12.01,2.59-17.98,4.02-1.46.35-2.44.07-3.53-.91-2.94-2.64-5.96-5.2-9.01-7.71-13.73-11.3-27.99-21.78-44.62-28.54-1.36-.56-1.25-1.46-1.25-2.51,0-7.11.01-14.23,0-21.34,0-4.95-2.46-7.39-7.45-7.39-15.83,0-31.65,0-47.48,0-5.18,0-7.55,2.34-7.56,7.57-.02,15.72-.02,31.45,0,47.17,0,5.15,2.44,7.58,7.57,7.62,5.1.04,10.2.04,15.3-.01,1.35-.02,2.06.12,1.93,1.81-.74,9.75-.22,19.47,1.2,29.13.23,1.55-.27,2.15-1.66,2.65-4.29,1.54-8.57,3.12-12.78,4.87-12.17,5.08-24.12,10.58-34.24,19.29-.85.74-1.75.69-2.7.69-7.56,0-15.12-.03-22.68.01-5.24.03-7.7,2.54-7.7,7.78,0,15.55,0,31.09,0,46.64,0,5.73,2.25,8.01,7.91,8.01,15.39,0,30.77,0,46.16,0,5.42,0,7.18-1.34,8.59-6.63,12.24,5.81,24.95,10.31,37.96,13.98,1.06.3,1.55.89,1.8,1.95,1.66,7.08,3.36,14.15,5.12,21.21.34,1.36-.04,1.7-1.35,1.68-3.16-.06-6.33-.06-9.5,0-5.29.08-7.69,2.53-7.7,7.81-.01,15.63-.01,31.27,0,46.9,0,5.31,2.43,7.71,7.73,7.71,15.47,0,30.95,0,46.42,0,5.95,0,8.34-2.34,8.34-8.23,0-15.28,0-30.57,0-45.85,0-5.9-2.41-8.34-8.29-8.36-7.21-.02-14.42-.05-21.63.03-1.59.02-2.31-.53-2.85-1.98-2.2-6-4.54-11.95-6.77-17.95-.21-.56-.91-1.17-.22-1.93,32.01,7.85,64.37,12.89,97.45,11.91,1.65-.05,1.36.78,1.4,1.72.18,4.89,2.48,7.1,7.45,7.1,15.83,0,31.65,0,47.48,0,4.98,0,7.5-2.2,7.53-7.09.09-16.07.09-32.15,0-48.22ZM100.58,108.54c7.56.13,15.11.07,22.67.04,5.3-.02,7.71-2.46,7.71-7.73,0-6.58,0-13.16,0-19.75,7.83,1.05,41,25.04,49.2,35.64-17,4.14-33.74,8.36-50.27,13.33-9.14,2.75-18.25,5.63-27.3,8.68-2.4.81-2.65.2-2.85-1.99-.78-8.56-1.6-17.11-1.63-25.72,0-1.94.44-2.53,2.46-2.5ZM112.76,230.16c-12.39-4.36-24.63-9.04-36.44-14.76-1.41-.68-1.19-1.73-1.19-2.84,0-12.2,0-24.4,0-36.59,0-6.79-2.18-8.97-8.97-8.97-4.71,0-9.41,0-14.12,0,8.78-6.89,18.58-11.55,28.63-15.71,4.28-1.77,8.68-3.28,12.99-4.99,1.17-.46,1.68-.42,1.94.99,5.11,27.55,10.97,54.95,17.3,82.25.03.15-.07.32-.14.62ZM230.49,198.19c-4.62.02-7.19,2.56-7.2,7.14-.01,12.47-.08,24.94.06,37.41.02,2.17-.74,2.8-2.65,3.16-10.71,2.02-21.48,2.04-32.28,1.07-21.85-1.96-43.18-6.51-64.12-12.98-1.94-.6-3-1.48-3.66-3.49-6.72-20.39-13.22-40.84-16.87-62.06-1.29-7.52-2.38-15.07-3.1-22.67-.16-1.64.4-2.08,1.74-2.51,21.54-7.01,43.49-12.46,65.6-17.3,5.4-1.18,10.84-2.17,16.23-3.39,1.38-.31,2.22-.1,3.22.89,19.34,19.47,36.18,40.85,49.78,64.72,1.77,3.1,3.25,6.37,5.09,10-4.29,0-8.06-.01-11.84,0Z"/>
  <path class="cls-2" d="M281.87,229.46c0,7.9-.05,15.81.03,23.71.02,2.45-.87,3.48-3.4,3.47-15.91-.06-31.83-.02-47.74-.04-2.94,0-3.74-.81-3.75-3.76-.01-15.63-.02-31.27,0-46.9,0-3.03,1.1-4.12,4.15-4.12,15.47-.02,30.95-.02,46.42,0,3.38,0,4.28.98,4.29,4.45,0,7.73,0,15.46,0,23.19Z"/>
  <path class="cls-6" d="M99.83,50c7.74,0,15.47,0,23.21,0,3.1,0,4.2.98,4.2,3.99.03,15.63.03,31.27,0,46.9,0,2.72-1.16,3.89-3.85,3.9-15.83.03-31.65.01-47.48.02-2.39,0-3.53-1.17-3.53-3.56,0-15.9,0-31.79.02-47.69,0-2.74.86-3.55,3.69-3.55,7.91-.02,15.83,0,23.74,0Z"/>
  <path class="cls-4" d="M213.27,94.61c0-7.82-.01-15.63,0-23.45,0-2.91.85-3.81,3.73-3.81,15.73-.02,31.47-.02,47.2,0,2.9,0,3.84.92,3.84,3.75.02,15.72.02,31.44,0,47.15,0,2.86-.97,3.86-3.77,3.86-15.73.02-31.47.02-47.2,0-2.84,0-3.79-.99-3.8-3.79-.02-7.9,0-15.81,0-23.71Z"/>
  <path class="cls-3" d="M43.69,225.55c-7.73,0-15.46,0-23.19,0-3.25,0-4.02-.77-4.02-4.03,0-15.45,0-30.89,0-46.34,0-3.39.95-4.41,4.38-4.41,15.37-.03,30.75-.04,46.12,0,3.35,0,4.35,1.12,4.36,4.5.01,15.36.01,30.71,0,46.07,0,3.35-.87,4.2-4.19,4.21-7.82,0-15.64,0-23.45,0Z"/>
  <path class="cls-1" d="M105.58,292.76c0-7.81-.01-15.62,0-23.43,0-2.87.89-3.81,3.73-3.82,15.72-.02,31.44-.02,47.17,0,2.79,0,3.89.99,3.9,3.78.05,15.71.05,31.41,0,47.12,0,2.85-1.17,3.86-4.12,3.86-15.55.01-31.09.02-46.64,0-3.17,0-4.04-.9-4.04-4.08-.01-7.81,0-15.62,0-23.43Z"/>
  <g>
    <path class="cls-5" d="M297.02,141.82l36.53-103.75h7.24l36.53,103.75h-7.71l-11.97-35.58h-41.09l-12.28,35.58h-7.24ZM325.36,80.73l-6.61,19.37h36.84l-6.61-19.37c-2.1-6.19-4.09-12.12-5.98-17.79-1.89-5.67-3.73-11.7-5.51-18.11h-.63c-1.79,6.4-3.62,12.44-5.51,18.11-1.89,5.67-3.88,11.6-5.98,17.79Z"/>
    <path class="cls-5" d="M449.58,143.71c-7.14,0-12.67-1.97-16.61-5.9-3.94-3.94-5.9-10.21-5.9-18.81V34.6h-28.65v-5.98h35.58v91.32c0,11.76,5.51,17.63,16.53,17.63,5.04,0,10.23-1.31,15.59-3.94l2.2,5.35c-3.25,1.57-6.27,2.76-9.05,3.54-2.78.79-6.01,1.18-9.68,1.18Z"/>
    <path class="cls-5" d="M541.37,143.71c-6.93,0-12.36-1.26-16.29-3.78-3.94-2.52-6.72-6.03-8.34-10.55-1.63-4.51-2.44-9.81-2.44-15.9v-41.25h-22.83v-5.35l22.99-.63.94-25.03h5.83v25.03h40.3v5.98h-40.3v41.88c0,4.83.58,9,1.73,12.52,1.15,3.52,3.28,6.22,6.38,8.11,3.09,1.89,7.42,2.83,12.99,2.83,3.99,0,7.58-.34,10.78-1.02,3.2-.68,6.32-1.65,9.37-2.91l1.89,5.35c-3.46,1.37-7.01,2.49-10.63,3.39-3.62.89-7.74,1.34-12.36,1.34Z"/>
    <path class="cls-5" d="M625.29,143.71c-7.24,0-13.88-1.57-19.92-4.72-6.04-3.15-10.86-7.69-14.48-13.62-3.62-5.93-5.43-13.04-5.43-21.33s1.78-15.24,5.35-21.18c3.57-5.93,8.21-10.49,13.93-13.7,5.72-3.2,11.89-4.8,18.5-4.8,10.39,0,18.63,3.1,24.72,9.29,6.09,6.19,9.13,14.75,9.13,25.66v2.91c0,1-.11,1.97-.31,2.91h-64.24c.21,7.03,1.83,12.96,4.88,17.79,3.04,4.83,7.06,8.5,12.04,11.02,4.98,2.52,10.42,3.78,16.29,3.78,5.14,0,9.76-.76,13.86-2.28,4.09-1.52,7.92-3.49,11.49-5.9l2.83,5.2c-3.36,2.31-7.3,4.38-11.81,6.22-4.51,1.83-10.13,2.75-16.85,2.75ZM623.4,70.34c-4.83,0-9.45,1.13-13.85,3.39-4.41,2.26-8.11,5.51-11.1,9.76-2.99,4.25-4.86,9.47-5.59,15.67h57.94c-.53-9.76-3.28-17-8.27-21.73-4.99-4.72-11.36-7.08-19.13-7.08Z"/>
    <path class="cls-5" d="M693.46,141.82v-75.57h5.98l.79,18.58h.32c4.09-5.98,9.16-10.89,15.19-14.72,6.04-3.83,12.83-5.75,20.39-5.75,2.52,0,5.09.21,7.71.63,2.62.42,5.09,1.26,7.4,2.52l-1.89,6.14c-2.73-.94-5.04-1.63-6.93-2.05-1.89-.42-4.36-.63-7.4-.63-6.3,0-12.31,1.79-18.03,5.35-5.72,3.57-11.21,9.66-16.45,18.26v47.23h-7.08Z"/>
  </g>
  <g>
    <path class="cls-5" d="M322.62,278.87v-103.75h9.6l18.11,48.65,6.46,18.11h.63l6.14-18.11,18.42-48.65h9.6v103.75h-7.08v-70.85c0-3.67.13-7.79.39-12.36.26-4.57.45-8.63.55-12.2h-.47l-5.67,17.79-19.52,50.07h-5.67l-19.21-50.07-6.14-17.79h-.31c.21,3.57.45,7.64.71,12.2.26,4.57.39,8.69.39,12.36v70.85h-6.93Z"/>
    <path class="cls-5" d="M445.11,280.76c-9.24,0-16.06-2.52-20.47-7.56-4.41-5.04-6.61-12.65-6.61-22.83v-47.07h6.93v46.13c0,8.4,1.68,14.67,5.04,18.81,3.36,4.15,8.76,6.22,16.22,6.22,5.35,0,10.23-1.39,14.64-4.17,4.41-2.78,9.18-7.11,14.33-12.99v-54h6.93v75.57h-5.83l-.79-14.64h-.63c-4.09,4.83-8.56,8.79-13.38,11.89-4.83,3.09-10.29,4.64-16.37,4.64Z"/>
    <path class="cls-5" d="M515.32,278.87v-75.57h5.98l.79,14.48h.63c4.3-4.62,8.82-8.5,13.54-11.65,4.72-3.15,10.13-4.72,16.22-4.72,18.16,0,27.24,10.13,27.24,30.39v47.08h-7.08v-46.13c0-8.4-1.68-14.67-5.04-18.81-3.36-4.15-8.76-6.22-16.22-6.22-5.35,0-10.15,1.39-14.41,4.17-4.25,2.78-9.11,7.06-14.56,12.83v54.16h-7.08Z"/>
    <path class="cls-5" d="M637.18,280.76c-9.87,0-17.9-3.41-24.09-10.23-6.19-6.82-9.29-16.58-9.29-29.28,0-8.19,1.65-15.24,4.96-21.18,3.31-5.93,7.69-10.52,13.15-13.78,5.46-3.25,11.28-4.88,17.48-4.88,4.83,0,9.24.94,13.23,2.83,3.99,1.89,7.87,4.51,11.65,7.87h.32l-.47-15.27v-31.17h7.08v113.2h-5.98l-.79-11.18h-.31c-3.25,3.46-7.24,6.51-11.97,9.13-4.72,2.62-9.71,3.94-14.96,3.94ZM638.13,274.62c4.41,0,8.79-1.21,13.15-3.62,4.35-2.41,8.63-5.83,12.83-10.23v-42.04c-4.2-4.09-8.29-6.98-12.28-8.66-3.99-1.68-7.98-2.52-11.97-2.52-5.35,0-10.18,1.5-14.48,4.49-4.3,2.99-7.74,7.01-10.31,12.04-2.57,5.04-3.86,10.76-3.86,17.16,0,9.97,2.39,18.03,7.16,24.17,4.77,6.14,11.36,9.21,19.76,9.21Z"/>
    <path class="cls-5" d="M740.93,278.87v-69.59h-37.94v-5.98h44.87v75.57h-6.93ZM742.67,184.88c-2,0-3.73-.68-5.2-2.05-1.47-1.36-2.2-3.2-2.2-5.51s.73-4.15,2.2-5.51c1.47-1.36,3.2-2.05,5.2-2.05,2.1,0,3.86.68,5.27,2.05,1.42,1.37,2.12,3.2,2.12,5.51s-.71,4.15-2.12,5.51c-1.42,1.37-3.18,2.05-5.27,2.05Z"/>
  </g>
</svg>